<?xml version="1.0" standalone="no"?>
<!DOCTYPE svg PUBLIC "-//W3C//DTD SVG 20010904//EN"
 "http://www.w3.org/TR/2001/REC-SVG-20010904/DTD/svg10.dtd">
<svg version="1.0" xmlns="http://www.w3.org/2000/svg"
 width="100.000000pt" height="100.000000pt" viewBox="0 0 100.000000 100.000000"
 preserveAspectRatio="xMidYMid meet">

<g transform="translate(0.000000,100.000000) scale(0.100000,-0.100000)"
fill="#2196f3" stroke="none">
<path d="M664 947 c-3 -8 -4 -39 -2 -68 2 -40 7 -54 18 -54 20 0 22 126 3 132
-7 3 -15 -2 -19 -10z"/>
<path d="M432 908 c-34 -34 -16 -59 191 -266 206 -206 231 -224 265 -190 34
34 16 59 -191 266 -206 206 -231 224 -265 190z"/>
<path d="M795 860 c-47 -47 -57 -62 -47 -72 10 -10 25 0 72 47 57 56 67 74 44
82 -5 2 -36 -24 -69 -57z"/>
<path d="M401 768 c-5 -13 -32 -72 -60 -132 l-51 -109 102 -97 103 -97 75 32
c41 18 102 45 135 59 l59 27 -169 169 c-94 94 -173 170 -178 170 -4 0 -11 -10
-16 -22z"/>
<path d="M785 730 c-13 -21 12 -31 71 -28 44 2 59 7 59 18 0 19 -119 28 -130
10z"/>
<path d="M187 401 c-72 -76 -77 -83 -77 -125 0 -50 30 -95 81 -121 56 -30 76
-21 171 73 l90 88 -82 80 c-45 43 -87 80 -94 82 -7 2 -47 -33 -89 -77z"/>
<path d="M425 240 l-60 -61 86 -84 c97 -96 128 -107 174 -60 32 31 32 75 1
113 -19 22 -26 42 -28 88 l-3 59 -55 3 -55 3 -60 -61z m135 0 c0 -11 -2 -20
-3 -20 -2 0 -12 9 -22 20 -18 19 -17 20 3 20 15 0 22 -6 22 -20z"/>
</g>
</svg>
