
<svg width="803" height="360" viewBox="0 0 803 360" fill="none" xmlns="http://www.w3.org/2000/svg">
<path d="M393.5 230C155 230 54 308.5 0 360H802.5C744 299 632 230 393.5 230Z" fill="url(#paint0_linear)"/>
<path d="M696.25 285L685 300V280L696.25 285Z" fill="#B0D3E7" fill-opacity="0.3"/>
<path d="M231 244.5L189 300.5V255L231 244.5Z" fill="#B0D3E7" fill-opacity="0.3"/>
<path d="M471 232.5L442.5 270.5L441.542 268L457 231.5L471 232.5Z" fill="#B0D3E7" fill-opacity="0.3"/>
<path d="M188.553 200.633H229.384V232.136H188.553V300.246H148.691V232.136H15.8151V209.521L146.315 4.31186H188.553V200.633ZM58.4937 200.633H148.779V61.774L147.547 61.598L143.675 71.7176L58.4937 200.633Z" fill="#4599FF"/>
<path d="M464.865 187.434C464.865 225.273 456.505 254.224 439.786 274.287C423.066 294.438 400.099 304.47 370.972 304.47C341.845 304.47 318.79 294.35 301.894 274.199C284.911 254.048 276.463 225.097 276.463 187.434V117.3C276.463 79.6374 284.911 50.6863 301.806 30.447C318.614 10.1197 341.581 0 370.532 0C399.659 0 422.626 10.1197 439.522 30.359C456.417 50.5983 464.865 79.5494 464.865 117.212V187.434ZM424.826 108.676C424.826 83.0693 420.163 63.7979 410.923 50.8623C401.683 37.9268 388.22 31.503 370.62 31.503C353.021 31.503 339.557 37.9268 330.405 50.8623C321.166 63.7979 316.59 83.0693 316.59 108.676V195.354C316.59 220.961 321.254 240.232 330.581 253.344C339.909 266.455 353.373 272.967 371.06 272.967C388.66 272.967 402.035 266.455 411.187 253.432C420.338 240.408 424.914 221.049 424.914 195.354V108.676H424.826Z" fill="#4599FF"/>
<path d="M684.856 200.633H725.687V232.136H684.856V300.246H644.993V232.136H512.118V209.521L642.529 4.31186H684.768V200.633H684.856ZM554.796 200.633H645.081V61.774L643.849 61.598L639.89 71.7176L554.796 200.633Z" fill="#4599FF"/>
<path d="M316.678 203.361C317.47 221.929 320.99 236.888 327.238 248.152C336.477 239.968 348.181 223.601 354.165 214.977C344.221 210.489 329.966 206.001 316.678 203.361Z" fill="#33589C"/>
<path d="M340.173 66.2618C342.109 70.3097 339.733 87.1171 349.413 90.725C359.093 94.3329 373.26 82.5413 378.804 82.8053C384.348 83.0693 389.452 83.2452 389.452 83.2452C385.052 77.8774 379.508 73.2136 372.82 69.4297C367.452 75.2375 360.853 80.2533 356.893 77.0855C352.317 73.4776 350.381 65.9978 349.501 60.894C343.077 59.574 337.181 59.222 331.638 59.486C331.638 59.574 338.237 62.2139 340.173 66.2618Z" fill="url(#paint1_linear)"/>
<path d="M348.533 100.053C368.86 101.813 388.924 85.4452 388.924 85.4452L389.452 83.3333C389.452 83.3333 384.348 83.1573 378.804 82.8933C373.26 82.6293 359.093 94.4209 349.413 90.813C339.733 87.2051 342.021 70.3977 340.173 66.3498C338.237 62.302 331.637 59.662 331.637 59.662L329.262 60.806C329.262 60.806 328.206 98.2048 348.533 100.053Z" fill="#EFBB6F"/>
<path d="M389.452 83.2453C389.452 83.2453 384.348 83.0693 378.804 82.8053C373.26 82.5413 359.093 94.3329 349.413 90.725C339.733 87.1171 342.021 70.3097 340.173 66.2618C338.237 62.214 331.638 59.5741 331.638 59.5741C329.35 59.662 327.062 59.926 324.95 60.19C319.318 72.4216 316.502 88.6131 316.502 108.676V146.339H316.59L316.502 195.442C316.502 196.322 316.678 202.569 316.678 203.449C323.894 204.417 358.389 215.505 362.261 219.465C370.092 211.633 387.78 155.051 392.092 140.795C398.867 141.499 404.235 142.379 404.235 142.379C406.699 122.316 403.179 99.7007 389.452 83.2453Z" fill="url(#paint2_linear)"/>
<path d="M356.805 77.0855C360.765 80.2534 367.452 75.2375 372.732 69.4297C377.044 64.7659 380.476 59.6621 381.004 57.8141C381.796 55.3502 382.236 50.2464 382.324 46.1105V43.2946C382.324 43.2946 380.3 43.9986 372.732 43.9986C365.164 43.9986 362.524 38.9827 362.524 38.9827L356.541 43.9106C356.541 43.9106 356.365 43.3826 355.925 42.7666V42.8546C355.925 42.8546 355.837 42.6786 355.661 42.4146C354.605 40.8307 352.669 38.6308 350.205 39.8627C349.765 40.1267 349.413 40.3907 348.973 40.7427L348.885 40.8307C348.709 41.0067 348.533 41.1827 348.357 41.3587C348.269 41.5347 348.093 41.6227 348.005 41.7986C346.861 43.2946 346.157 45.5825 346.421 48.4864C346.597 49.8944 346.773 51.0383 347.037 52.0063C347.741 54.2062 348.709 55.7902 348.709 55.7902C348.709 55.7902 348.797 57.9021 349.325 60.894C350.293 65.9978 352.317 73.5656 356.805 77.0855Z" fill="#FFDAA1"/>
<path d="M348.533 41.4466C348.709 41.2706 348.885 41.0946 349.061 40.9186C348.885 41.0946 348.709 41.2706 348.533 41.4466Z" fill="#FFDAA1"/>
<path d="M348.533 41.4466C348.709 41.2706 348.885 41.0946 349.061 40.9186C348.885 41.0946 348.709 41.2706 348.533 41.4466Z" fill="url(#paint3_linear)"/>
<path d="M361.557 33.9669C356.805 37.3988 356.101 42.3266 356.013 42.9426C356.453 43.5586 356.629 44.0865 356.629 44.0865L362.612 39.1587C362.612 39.1587 365.252 44.0865 372.82 44.1745C380.388 44.1745 382.412 43.4706 382.412 43.4706C382.412 42.0626 382.324 40.9187 382.236 40.3027C381.884 37.8388 369.564 29.391 361.557 33.9669Z" fill="#FFDAA1"/>
<path d="M379.948 19.2714C379.948 19.2714 378.012 11.7036 370.796 13.1996C363.58 14.6955 350.733 19.1834 346.773 30.887C342.725 42.5906 346.245 56.2302 348.709 58.2541C348.885 55.8782 348.885 55.8782 348.885 55.8782C348.885 55.8782 347.917 54.8222 347.213 52.0943C346.245 49.1904 345.717 45.1425 348.181 41.8866C348.269 41.7106 348.445 41.6226 348.533 41.4466C348.709 41.2706 348.885 41.0947 349.061 40.9187L349.149 40.8307C349.589 40.4787 349.941 40.1267 350.381 39.9507C350.733 39.7747 351.085 39.5987 351.525 39.4227C353.549 38.8067 355.221 41.3586 355.837 42.5026C355.925 42.5906 356.013 42.7666 356.101 42.8546C356.541 43.4706 356.717 43.9986 356.717 43.9986L362.7 39.0707C362.7 39.0707 365.34 43.9986 372.908 44.0866C380.476 44.0866 382.5 43.3826 382.5 43.3826C382.5 44.2625 382.5 45.1425 382.5 46.1985C382.5 46.1985 397.283 41.8866 397.195 30.447C397.107 18.9194 379.948 19.2714 379.948 19.2714Z" fill="url(#paint4_linear)"/>
<path d="M348.885 55.8782C348.885 55.8782 347.917 54.2942 347.213 52.0943C347.917 54.8222 348.885 55.8782 348.885 55.8782Z" fill="#FFDAA1"/>
<path d="M348.885 55.8782C348.885 55.8782 347.917 54.2942 347.213 52.0943C347.917 54.8222 348.885 55.8782 348.885 55.8782Z" fill="url(#paint5_linear)"/>
<path d="M351.437 39.5107C351.085 39.5987 350.733 39.7747 350.293 40.0387C352.757 38.8067 354.693 41.0066 355.749 42.5906C355.133 41.4466 353.461 38.8067 351.437 39.5107Z" fill="#FFDAA1"/>
<path d="M348.533 41.4466C348.445 41.6226 348.269 41.7106 348.181 41.8866C348.269 41.7106 348.357 41.6226 348.533 41.4466Z" fill="#FFDAA1"/>
<path d="M348.533 41.4466C348.445 41.6226 348.269 41.7106 348.181 41.8866C348.269 41.7106 348.357 41.6226 348.533 41.4466Z" fill="url(#paint6_linear)"/>
<path d="M372.732 54.6462C367.628 59.222 362.701 64.5019 362.701 64.5019L368.684 66.3498C368.684 66.2618 370.708 57.3741 372.732 54.6462Z" fill="url(#paint7_linear)"/>
<path d="M369.828 139.475L369.916 149.155C369.916 149.155 342.109 150.211 330.23 145.195C322.486 131.556 316.414 129.444 316.414 129.444L316.326 137.363C309.022 135.868 309.99 131.556 301.807 125.22C301.807 125.22 298.903 134.988 301.895 143.171C304.886 151.355 305.942 149.507 308.758 151.707C311.662 153.907 324.334 156.987 324.334 156.987L387.252 188.754C387.252 188.754 397.459 166.931 400.539 141.763C391.476 140.267 382.588 138.155 369.828 139.475Z" fill="#FFDAA1"/>
<defs>
<linearGradient id="paint0_linear" x1="401.25" y1="230" x2="401.25" y2="360" gradientUnits="userSpaceOnUse">
<stop stop-color="#B8E5FE"/>
<stop offset="1" stop-color="white" stop-opacity="0"/>
</linearGradient>
<linearGradient id="paint1_linear" x1="373.392" y1="65.4058" x2="343.863" y2="86.0194" gradientUnits="userSpaceOnUse">
<stop stop-color="#FFDAA1"/>
<stop offset="1" stop-color="#EFBB6F"/>
</linearGradient>
<linearGradient id="paint2_linear" x1="261.832" y1="139.499" x2="427.771" y2="139.499" gradientUnits="userSpaceOnUse">
<stop stop-color="#3F67FD"/>
<stop offset="1" stop-color="#4197FF"/>
</linearGradient>
<linearGradient id="paint3_linear" x1="344.314" y1="41.8721" x2="397.736" y2="33.7176" gradientUnits="userSpaceOnUse">
<stop stop-color="#2961BB"/>
<stop offset="1" stop-color="#0A3E8C"/>
</linearGradient>
<linearGradient id="paint4_linear" x1="322.439" y1="35.6506" x2="429.365" y2="35.6506" gradientUnits="userSpaceOnUse">
<stop stop-color="#2961BB"/>
<stop offset="1" stop-color="#0A3E8C"/>
</linearGradient>
<linearGradient id="paint5_linear" x1="346.206" y1="54.273" x2="399.632" y2="46.1172" gradientUnits="userSpaceOnUse">
<stop stop-color="#2961BB"/>
<stop offset="1" stop-color="#0A3E8C"/>
</linearGradient>
<linearGradient id="paint6_linear" x1="344.376" y1="42.2825" x2="397.804" y2="34.1261" gradientUnits="userSpaceOnUse">
<stop stop-color="#2961BB"/>
<stop offset="1" stop-color="#0A3E8C"/>
</linearGradient>
<linearGradient id="paint7_linear" x1="368" y1="60" x2="368.858" y2="65.6727" gradientUnits="userSpaceOnUse">
<stop stop-color="#FFDAA1"/>
<stop offset="1" stop-color="#EFBB6F"/>
</linearGradient>
</defs>
</svg>
